<svg width="102" height="102" viewBox="0 0 102 102" fill="none" xmlns="http://www.w3.org/2000/svg">
<path d="M59.2743 27.4736C59.174 31.092 56.6656 36.2181 52.4516 36.2181C49.843 36.2181 47.6356 34.1073 47.6356 31.3935C47.5353 27.1721 45.629 23.4532 42.7193 20.8399C40.512 18.9302 37.7027 17.6235 34.5923 17.322C37.201 14.7087 40.813 13 44.8263 13C49.9433 13 54.659 15.9148 57.368 20.3373C58.6723 22.448 59.3746 24.9608 59.2743 27.4736Z" fill="#175FFF"/>
<path d="M42.5188 27.7752C44.7261 30.5895 46.1308 36.2181 42.9201 38.9319C40.9135 40.6406 37.9035 40.339 36.1978 38.3288C33.3885 35.213 29.5758 33.5043 25.6628 33.4038C22.7532 33.3033 19.7432 34.2079 17.2349 35.9165C17.5359 32.1976 19.2415 28.5792 22.3519 25.966C26.3652 22.5486 32.0842 21.644 37.0005 23.5537C39.0071 24.4583 41.1141 25.966 42.5188 27.7752Z" fill="#175FFF"/>
<path d="M29.8768 38.8314C33.3884 39.5349 38.1041 42.9523 37.3014 47.0733C36.7998 49.6865 34.3918 51.3952 31.7831 50.9932C27.6695 50.3901 23.6561 51.5963 20.5458 54.0085C18.2381 55.8177 16.5325 58.431 15.7298 61.4463C13.5225 58.431 12.5192 54.5111 13.2215 50.4906C14.1245 45.2641 17.9371 40.9421 22.8535 39.2334C25.1611 38.5298 27.5691 38.3288 29.8768 38.8314Z" fill="#175FFF"/>
<path d="M27.2682 55.4157C30.4788 53.707 36.1978 53.3049 38.3048 56.9233C39.6091 59.2351 38.8065 62.1499 36.5991 63.4566C32.9871 65.6678 30.6795 69.1857 29.9772 73.0051C29.3752 75.9199 29.6762 78.9353 30.9805 81.8501C27.3685 80.9455 24.0575 78.5332 22.0508 75.1158C19.4422 70.5928 19.5425 64.7632 22.2515 60.3407C23.4555 58.23 25.2615 56.5213 27.2682 55.4157Z" fill="#175FFF"/>
<path d="M35.8968 69.7888C37.2011 66.3714 41.4151 62.4515 45.3281 63.8586C47.8364 64.7632 49.1407 67.477 48.2378 69.9898C46.9334 74.0102 47.4351 78.1312 49.3414 81.5486C50.7461 84.1618 52.9534 86.2726 55.7627 87.5792C52.3514 89.1874 48.3381 89.4889 44.5254 88.1823C39.6091 86.3731 35.8968 81.9506 35.1944 76.724C34.7931 74.4123 35.0941 72 35.8968 69.7888Z" fill="#175FFF"/>
<path d="M51.7494 75.2164C50.6457 71.799 51.2477 66.0699 55.1607 64.6627C57.669 63.7581 60.378 65.0647 61.281 67.477C62.786 71.3969 65.8964 74.3118 69.5083 75.7189C72.2173 76.8245 75.3277 77.0256 78.3377 76.2215C76.8327 79.6389 73.923 82.4532 70.1103 83.8603C65.194 85.6695 59.475 84.5639 55.562 81.046C53.9567 79.5383 52.5521 77.4276 51.7494 75.2164Z" fill="#175FFF"/>
<path d="M67.4014 69.1857C64.2911 67.276 61.0804 62.552 63.1874 58.833C64.4917 56.5213 67.4014 55.7172 69.709 57.0238C73.4214 59.0341 77.6353 59.2351 81.3477 58.029C84.157 57.0238 86.6653 55.3152 88.4713 52.7019C89.4747 56.3203 89.0733 60.3407 87.0667 63.8586C84.458 68.3816 79.4413 71.1959 74.1237 71.0954C71.816 71.0954 69.408 70.3918 67.4014 69.1857Z" fill="#175FFF"/>
<path d="M75.5284 54.5111C71.9164 55.0136 66.398 53.4054 65.6957 49.2845C65.194 46.6712 67 44.1584 69.6087 43.6559C73.7224 42.8518 77.1337 40.339 79.1403 36.9216C80.6453 34.4089 81.448 31.3935 81.147 28.2777C84.2573 30.3884 86.565 33.7053 87.2673 37.7257C88.1703 42.9523 86.1637 48.2794 82.05 51.5962C80.1437 53.1039 77.836 54.2095 75.5284 54.5111Z" fill="#175FFF"/>
<path d="M72.3177 38.0273C69.9097 40.7411 64.6924 43.0528 61.4817 40.339C59.4751 38.6303 59.1741 35.615 60.8797 33.6048C63.4884 30.2879 64.4917 26.167 63.8897 22.3475C63.388 19.4327 62.0837 16.6184 59.8764 14.4072C63.5887 14.0051 67.5017 15.0102 70.612 17.6235C74.6253 21.0409 76.5317 26.4685 75.5283 31.5946C74.9263 34.0068 73.8227 36.3186 72.3177 38.0273Z" fill="#175FFF"/>
</svg>
